<?xml version="1.0" encoding="UTF-8" standalone="no"?>
<svg width="297.011mm" height="209.973mm"
 viewBox="0 0 3508 2480"
 xmlns="http://www.w3.org/2000/svg" xmlns:xlink="http://www.w3.org/1999/xlink"  version="1.2" baseProfile="tiny">
<defs>
</defs>
<g fill="none" stroke="black" stroke-width="1" fill-rule="evenodd" stroke-linecap="square" stroke-linejoin="bevel" >

<g fill="#ffffff" fill-opacity="1" stroke="none" transform="matrix(1,0,0,1,0,0)"
font-family="Arial" font-size="12" font-weight="400" font-style="normal" 
>
<rect x="0" y="0" width="3508" height="2480"/>
</g>

<g fill="none" stroke="#000000" stroke-opacity="1" stroke-width="1" stroke-linecap="square" stroke-linejoin="bevel" transform="matrix(1,0,0,1,0,0)"
font-family="Arial" font-size="12" font-weight="400" font-style="normal" 
>
</g>

<g fill="#000000" fill-opacity="1" stroke="#000000" stroke-opacity="1" stroke-width="1" stroke-linecap="butt" stroke-linejoin="miter" stroke-miterlimit="2" transform="matrix(1,0,0,1,0,0)"
font-family="Arial" font-size="12" font-weight="400" font-style="normal" 
>
</g>

<g fill="#000000" fill-opacity="1" stroke="#000000" stroke-opacity="1" stroke-width="5" stroke-linecap="round" stroke-linejoin="bevel" transform="matrix(1,0,0,1,0,0)"
font-family="Arial" font-size="12" font-weight="400" font-style="normal" 
>
<polyline fill="none" vector-effect="none" points="3095.79,368.817 3095.79,2140.25 " />
<polyline fill="none" vector-effect="none" points="379.596,2140.25 3095.79,2140.25 " />
<polyline fill="none" vector-effect="none" points="379.596,368.817 379.596,2140.25 " />
<polyline fill="none" vector-effect="none" points="379.596,368.817 3095.79,368.817 " />
<polyline fill="none" vector-effect="none" points="2595.6,956.069 2595.44,952.934 2594.94,949.833 2594.13,946.8 2593.01,943.869 2591.58,941.071 2589.87,938.438 2587.9,935.998 2585.68,933.778 2583.23,931.802 2580.6,930.092 2577.8,928.666 2574.87,927.541 2571.84,926.729 2568.74,926.237 2565.6,926.073 2562.47,926.237 2559.37,926.729 2556.33,927.541 2553.4,928.666 2550.61,930.092 2547.97,931.802 2545.53,933.778 2543.31,935.998 2541.34,938.438 2539.63,941.071 2538.2,943.869 2537.08,946.8 2536.26,949.833 2535.77,952.934 2535.61,956.069 2535.77,959.205 2536.26,962.306 2537.08,965.339 2538.2,968.27 2539.63,971.067 2541.34,973.701 2543.31,976.141 2545.53,978.361 2547.97,980.337 2550.61,982.047 2553.4,983.472 2556.33,984.597 2559.37,985.41 2562.47,985.901 2565.6,986.065 2568.74,985.901 2571.84,985.41 2574.87,984.597 2577.8,983.472 2580.6,982.047 2583.23,980.337 2585.68,978.361 2587.9,976.141 2589.87,973.701 2591.58,971.067 2593.01,968.27 2594.13,965.339 2594.94,962.306 2595.44,959.205 2595.6,956.069 " />
</g>

<g fill="#000000" fill-opacity="1" stroke="#000000" stroke-opacity="1" stroke-width="2" stroke-linecap="round" stroke-linejoin="bevel" transform="matrix(1,0,0,1,0,0)"
font-family="Arial" font-size="12" font-weight="400" font-style="normal" 
>
<polyline fill="none" vector-effect="none" points="2550.84,956.069 2580.37,956.069 " />
<polyline fill="none" vector-effect="none" points="2565.6,970.831 2565.6,941.307 " />
</g>

<g fill="#000000" fill-opacity="1" stroke="#000000" stroke-opacity="1" stroke-width="5" stroke-linecap="round" stroke-linejoin="bevel" transform="matrix(1,0,0,1,0,0)"
font-family="Arial" font-size="12" font-weight="400" font-style="normal" 
>
<polyline fill="none" vector-effect="none" points="2833.32,1518.5 2833.16,1515.36 2832.66,1512.26 2831.85,1509.23 2830.73,1506.3 2829.3,1503.5 2827.59,1500.87 2825.61,1498.43 2823.39,1496.21 2820.95,1494.23 2818.32,1492.52 2815.52,1491.09 2812.59,1489.97 2809.56,1489.16 2806.46,1488.67 2803.32,1488.5 2800.19,1488.67 2797.09,1489.16 2794.05,1489.97 2791.12,1491.09 2788.33,1492.52 2785.69,1494.23 2783.25,1496.21 2781.03,1498.43 2779.06,1500.87 2777.35,1503.5 2775.92,1506.3 2774.8,1509.23 2773.98,1512.26 2773.49,1515.36 2773.33,1518.5 2773.49,1521.63 2773.98,1524.73 2774.8,1527.77 2775.92,1530.7 2777.35,1533.5 2779.06,1536.13 2781.03,1538.57 2783.25,1540.79 2785.69,1542.77 2788.33,1544.48 2791.12,1545.9 2794.05,1547.03 2797.09,1547.84 2800.19,1548.33 2803.32,1548.49 2806.46,1548.33 2809.56,1547.84 2812.59,1547.03 2815.52,1545.9 2818.32,1544.48 2820.95,1542.77 2823.39,1540.79 2825.61,1538.57 2827.59,1536.13 2829.3,1533.5 2830.73,1530.7 2831.85,1527.77 2832.66,1524.73 2833.16,1521.63 2833.32,1518.5 " />
</g>

<g fill="#000000" fill-opacity="1" stroke="#000000" stroke-opacity="1" stroke-width="2" stroke-linecap="round" stroke-linejoin="bevel" transform="matrix(1,0,0,1,0,0)"
font-family="Arial" font-size="12" font-weight="400" font-style="normal" 
>
<polyline fill="none" vector-effect="none" points="2788.56,1518.5 2818.09,1518.5 " />
<polyline fill="none" vector-effect="none" points="2803.32,1533.26 2803.32,1503.74 " />
</g>

<g fill="#000000" fill-opacity="1" stroke="#000000" stroke-opacity="1" stroke-width="5" stroke-linecap="round" stroke-linejoin="bevel" transform="matrix(1,0,0,1,0,0)"
font-family="Arial" font-size="12" font-weight="400" font-style="normal" 
>
<polyline fill="none" vector-effect="none" points="1099.5,954.569 1099.34,948.237 1098.84,941.923 1098,935.643 1096.84,929.417 1095.35,923.26 1093.53,917.191 1091.4,911.226 1088.96,905.382 1086.21,899.675 1083.16,894.12 1079.83,888.735 1076.22,883.533 1072.33,878.528 1068.19,873.736 1063.8,869.169 1059.18,864.84 1054.33,860.762 1049.27,856.944 1044.02,853.399 1038.6,850.136 1033,847.163 1027.26,844.491 1021.38,842.125 1015.39,840.072 1009.3,838.338 1003.12,836.929 996.88,835.847 990.59,835.096 984.27,834.679 977.936,834.595 971.606,834.846 965.299,835.43 959.031,836.347 952.821,837.593 946.684,839.165 940.64,841.059 934.703,843.269 928.892,845.789 923.221,848.613 917.708,851.731 912.367,855.137 907.213,858.819 902.26,862.769 897.523,866.974 893.014,871.424 888.747,876.105 884.732,881.005 880.982,886.11 877.507,891.406 874.315,896.877 871.417,902.51 868.82,908.288 866.532,914.194 864.559,920.214 862.906,926.329 861.578,932.522 860.579,938.777 859.911,945.077 859.577,951.402 859.577,957.737 859.911,964.062 860.579,970.361 861.578,976.617 862.906,982.81 864.559,988.925 866.532,994.944 868.82,1000.85 871.417,1006.63 874.315,1012.26 877.507,1017.73 880.982,1023.03 884.732,1028.13 888.747,1033.03 893.014,1037.72 897.523,1042.16 902.26,1046.37 907.213,1050.32 912.367,1054 917.708,1057.41 923.221,1060.53 928.892,1063.35 934.703,1065.87 940.64,1068.08 946.684,1069.97 952.821,1071.55 959.031,1072.79 965.299,1073.71 971.606,1074.29 977.936,1074.54 984.27,1074.46 990.59,1074.04 996.88,1073.29 1003.12,1072.21 1009.3,1070.8 1015.39,1069.07 1021.38,1067.01 1027.26,1064.65 1033,1061.98 1038.6,1059 1044.02,1055.74 1049.27,1052.19 1054.33,1048.38 1059.18,1044.3 1063.8,1039.97 1068.19,1035.4 1072.33,1030.61 1076.22,1025.61 1079.83,1020.4 1083.16,1015.02 1086.21,1009.46 1088.96,1003.76 1091.4,997.913 1093.53,991.948 1095.35,985.879 1096.84,979.722 1098,973.496 1098.84,967.216 1099.34,960.902 1099.5,954.569 " />
</g>

<g fill="#000000" fill-opacity="1" stroke="#000000" stroke-opacity="1" stroke-width="2" stroke-linecap="round" stroke-linejoin="bevel" transform="matrix(1,0,0,1,0,0)"
font-family="Arial" font-size="12" font-weight="400" font-style="normal" 
>
<polyline fill="none" vector-effect="none" points="964.758,954.569 994.282,954.569 " />
<polyline fill="none" vector-effect="none" points="979.52,969.331 979.52,939.807 " />
</g>

<g fill="#000000" fill-opacity="1" stroke="#000000" stroke-opacity="1" stroke-width="5" stroke-linecap="round" stroke-linejoin="bevel" transform="matrix(1,0,0,1,0,0)"
font-family="Arial" font-size="12" font-weight="400" font-style="normal" 
>
<polyline fill="none" vector-effect="none" points="1099.5,1554.49 1099.34,1548.16 1098.84,1541.85 1098,1535.57 1096.84,1529.34 1095.35,1523.18 1093.53,1517.11 1091.4,1511.15 1088.96,1505.31 1086.21,1499.6 1083.16,1494.04 1079.83,1488.66 1076.22,1483.46 1072.33,1478.45 1068.19,1473.66 1063.8,1469.09 1059.18,1464.76 1054.33,1460.69 1049.27,1456.87 1044.02,1453.32 1038.6,1450.06 1033,1447.09 1027.26,1444.41 1021.38,1442.05 1015.39,1440 1009.3,1438.26 1003.12,1436.85 996.88,1435.77 990.59,1435.02 984.27,1434.6 977.936,1434.52 971.606,1434.77 965.299,1435.35 959.031,1436.27 952.821,1437.52 946.684,1439.09 940.64,1440.98 934.703,1443.19 928.892,1445.71 923.221,1448.54 917.708,1451.66 912.367,1455.06 907.213,1458.74 902.26,1462.69 897.523,1466.9 893.014,1471.35 888.747,1476.03 884.732,1480.93 880.982,1486.03 877.507,1491.33 874.315,1496.8 871.417,1502.43 868.82,1508.21 866.532,1514.12 864.559,1520.14 862.906,1526.25 861.578,1532.45 860.579,1538.7 859.911,1545 859.577,1551.33 859.577,1557.66 859.911,1563.99 860.579,1570.29 861.578,1576.54 862.906,1582.73 864.559,1588.85 866.532,1594.87 868.82,1600.77 871.417,1606.55 874.315,1612.19 877.507,1617.66 880.982,1622.95 884.732,1628.06 888.747,1632.96 893.014,1637.64 897.523,1642.09 902.26,1646.29 907.213,1650.24 912.367,1653.93 917.708,1657.33 923.221,1660.45 928.892,1663.27 934.703,1665.79 940.64,1668 946.684,1669.9 952.821,1671.47 959.031,1672.72 965.299,1673.63 971.606,1674.22 977.936,1674.47 984.27,1674.38 990.59,1673.97 996.88,1673.22 1003.12,1672.13 1009.3,1670.72 1015.39,1668.99 1021.38,1666.94 1027.26,1664.57 1033,1661.9 1038.6,1658.93 1044.02,1655.66 1049.27,1652.12 1054.33,1648.3 1059.18,1644.22 1063.8,1639.89 1068.19,1635.33 1072.33,1630.53 1076.22,1625.53 1079.83,1620.33 1083.16,1614.94 1086.21,1609.39 1088.96,1603.68 1091.4,1597.84 1093.53,1591.87 1095.35,1585.8 1096.84,1579.65 1098,1573.42 1098.84,1567.14 1099.34,1560.83 1099.5,1554.49 " />
</g>

<g fill="#000000" fill-opacity="1" stroke="#000000" stroke-opacity="1" stroke-width="2" stroke-linecap="round" stroke-linejoin="bevel" transform="matrix(1,0,0,1,0,0)"
font-family="Arial" font-size="12" font-weight="400" font-style="normal" 
>
<polyline fill="none" vector-effect="none" points="964.758,1554.49 994.282,1554.49 " />
<polyline fill="none" vector-effect="none" points="979.52,1569.26 979.52,1539.73 " />
</g>

<g fill="#000000" fill-opacity="1" stroke="#000000" stroke-opacity="1" stroke-width="5" stroke-linecap="round" stroke-linejoin="bevel" transform="matrix(1,0,0,1,0,0)"
font-family="Arial" font-size="12" font-weight="400" font-style="normal" 
>
<polyline fill="none" vector-effect="none" points="1777.45,1308.52 1777.45,1728.47 " />
<polyline fill="none" vector-effect="none" points="2617.35,1308.52 1777.45,1308.52 " />
<polyline fill="none" vector-effect="none" points="2617.35,1308.52 2617.35,1728.47 " />
<polyline fill="none" vector-effect="none" points="2617.35,1728.47 1777.45,1728.47 " />
<polyline fill="none" vector-effect="none" points="1621.47,1518.5 1621.31,1515.36 1620.82,1512.26 1620.01,1509.23 1618.88,1506.3 1617.45,1503.5 1615.74,1500.87 1613.77,1498.43 1611.55,1496.21 1609.11,1494.23 1606.48,1492.52 1603.68,1491.09 1600.75,1489.97 1597.71,1489.16 1594.61,1488.67 1591.48,1488.5 1588.34,1488.67 1585.24,1489.16 1582.21,1489.97 1579.28,1491.09 1576.48,1492.52 1573.85,1494.23 1571.41,1496.21 1569.19,1498.43 1567.21,1500.87 1565.5,1503.5 1564.07,1506.3 1562.95,1509.23 1562.14,1512.26 1561.65,1515.36 1561.48,1518.5 1561.65,1521.63 1562.14,1524.73 1562.95,1527.77 1564.07,1530.7 1565.5,1533.5 1567.21,1536.13 1569.19,1538.57 1571.41,1540.79 1573.85,1542.77 1576.48,1544.48 1579.28,1545.9 1582.21,1547.03 1585.24,1547.84 1588.34,1548.33 1591.48,1548.49 1594.61,1548.33 1597.71,1547.84 1600.75,1547.03 1603.68,1545.9 1606.48,1544.48 1609.11,1542.77 1611.55,1540.79 1613.77,1538.57 1615.74,1536.13 1617.45,1533.5 1618.88,1530.7 1620.01,1527.77 1620.82,1524.73 1621.31,1521.63 1621.47,1518.5 " />
</g>

<g fill="#000000" fill-opacity="1" stroke="#000000" stroke-opacity="1" stroke-width="2" stroke-linecap="round" stroke-linejoin="bevel" transform="matrix(1,0,0,1,0,0)"
font-family="Arial" font-size="12" font-weight="400" font-style="normal" 
>
<polyline fill="none" vector-effect="none" points="1576.72,1518.5 1606.24,1518.5 " />
<polyline fill="none" vector-effect="none" points="1591.48,1533.26 1591.48,1503.74 " />
</g>

<g fill="#000000" fill-opacity="1" stroke="#000000" stroke-opacity="1" stroke-width="5" stroke-linecap="round" stroke-linejoin="bevel" transform="matrix(1,0,0,1,0,0)"
font-family="Arial" font-size="12" font-weight="400" font-style="normal" 
>
<polyline fill="none" vector-effect="none" points="2347.38,1023.56 2047.42,1023.56 " />
<polyline fill="none" vector-effect="none" points="2047.42,888.578 2047.42,1023.56 " />
<polyline fill="none" vector-effect="none" points="2347.38,888.578 2047.42,888.578 " />
<polyline fill="none" vector-effect="none" points="2347.38,888.578 2347.38,1023.56 " />
<polyline fill="none" vector-effect="none" points="1859.19,956.069 1859.03,952.934 1858.54,949.833 1857.73,946.8 1856.6,943.869 1855.17,941.071 1853.46,938.438 1851.49,935.998 1849.27,933.778 1846.83,931.802 1844.2,930.092 1841.4,928.666 1838.47,927.541 1835.43,926.729 1832.33,926.237 1829.2,926.073 1826.06,926.237 1822.96,926.729 1819.93,927.541 1817,928.666 1814.2,930.092 1811.57,931.802 1809.13,933.778 1806.91,935.998 1804.93,938.438 1803.22,941.071 1801.79,943.869 1800.67,946.8 1799.86,949.833 1799.37,952.934 1799.2,956.069 1799.37,959.205 1799.86,962.306 1800.67,965.339 1801.79,968.27 1803.22,971.067 1804.93,973.701 1806.91,976.141 1809.13,978.361 1811.57,980.337 1814.2,982.047 1817,983.472 1819.93,984.597 1822.96,985.41 1826.06,985.901 1829.2,986.065 1832.33,985.901 1835.43,985.41 1838.47,984.597 1841.4,983.472 1844.2,982.047 1846.83,980.337 1849.27,978.361 1851.49,976.141 1853.46,973.701 1855.17,971.067 1856.6,968.27 1857.73,965.339 1858.54,962.306 1859.03,959.205 1859.19,956.069 " />
</g>

<g fill="#000000" fill-opacity="1" stroke="#000000" stroke-opacity="1" stroke-width="2" stroke-linecap="round" stroke-linejoin="bevel" transform="matrix(1,0,0,1,0,0)"
font-family="Arial" font-size="12" font-weight="400" font-style="normal" 
>
<polyline fill="none" vector-effect="none" points="1814.44,956.069 1843.96,956.069 " />
<polyline fill="none" vector-effect="none" points="1829.2,970.831 1829.2,941.307 " />
</g>

<g fill="none" stroke="#000000" stroke-opacity="1" stroke-width="1" stroke-linecap="square" stroke-linejoin="bevel" transform="matrix(1,0,0,1,0,0)"
font-family="Arial" font-size="12" font-weight="400" font-style="normal" 
>
</g>
</g>
</svg>
